<svg width="29" height="13" viewBox="0 0 29 13" fill="none" xmlns="http://www.w3.org/2000/svg">
<path d="M6.38898 7.014H3.72498V9.678H2.77098V7.014H0.106984V6.078H2.77098V3.414H3.72498V6.078H6.38898V7.014ZM14.9192 12.054L14.3252 6.33H11.9492C11.3852 6.33 10.8632 6.192 10.3832 5.916C9.90316 5.64 9.52516 5.268 9.24916 4.8C8.97316 4.32 8.83516 3.792 8.83516 3.216C8.83516 2.64 8.97316 2.112 9.24916 1.632C9.52516 1.152 9.90316 0.773999 10.3832 0.497999C10.8632 0.209999 11.3852 0.0659992 11.9492 0.0659992C12.4892 0.0659992 12.9872 0.197999 13.4432 0.461999C13.8992 0.726 14.2712 1.092 14.5592 1.56C14.8472 2.028 15.0212 2.556 15.0812 3.144L15.9812 11.946L14.9192 12.054ZM14.2172 5.196L14.0192 3.252C13.9592 2.652 13.7372 2.166 13.3532 1.794C12.9692 1.41 12.5012 1.218 11.9492 1.218C11.3612 1.218 10.8692 1.41 10.4732 1.794C10.0892 2.178 9.89716 2.652 9.89716 3.216C9.89716 3.756 10.0952 4.224 10.4912 4.62C10.8872 5.004 11.3732 5.196 11.9492 5.196H14.2172ZM22.9678 0.174H23.9758L28.0618 11.694L27.0718 12.09L23.4718 1.956L19.8718 12.09L18.8638 11.694L22.9678 0.174Z" fill="#CBCBCB"/>
</svg>
