<svg width="32" height="32" viewBox="0 0 32 32" fill="none" xmlns="http://www.w3.org/2000/svg">
<path opacity="0.4" d="M27.1 10.8247V10.8267V23.3734C27.1 26.378 24.6565 28.8334 21.6401 28.8334H10.3467C7.34286 28.8334 4.88672 26.3772 4.88672 23.3734V10.8267C4.88672 7.82211 7.33026 5.3667 10.3467 5.3667H21.6534C24.6584 5.3667 27.1123 7.81018 27.1 10.8247Z" fill="#757575" stroke="#757575"/>
<path d="M21.14 5.16861L21.14 5.16861V5.17341V6.42675C21.14 7.53727 20.2439 8.43341 19.1333 8.43341H12.8533C11.7428 8.43341 10.8467 7.53727 10.8467 6.42675V5.17341C10.8467 4.06634 11.7527 3.16675 12.8667 3.16675H19.1333C20.2483 3.16675 21.1506 4.06622 21.14 5.16861Z" fill="#757575" stroke="#757575"/>
<path d="M19.9998 16.7666H10.6665C10.396 16.7666 10.1665 16.5371 10.1665 16.2666C10.1665 15.9961 10.396 15.7666 10.6665 15.7666H19.9998C20.2704 15.7666 20.4998 15.9961 20.4998 16.2666C20.4998 16.5371 20.2704 16.7666 19.9998 16.7666Z" fill="#757575" stroke="#757575"/>
<path d="M16.5065 22.6001H10.6665C10.1198 22.6001 9.6665 22.1468 9.6665 21.6001C9.6665 21.0534 10.1198 20.6001 10.6665 20.6001H16.5065C17.0532 20.6001 17.5065 21.0534 17.5065 21.6001C17.5065 22.1468 17.0532 22.6001 16.5065 22.6001Z" fill="#757575"/>
</svg>
