<svg width="24" height="25" viewBox="0 0 24 25" fill="none" xmlns="http://www.w3.org/2000/svg">
<path d="M16.75 4.06V2.5C16.75 2.09 16.41 1.75 16 1.75C15.59 1.75 15.25 2.09 15.25 2.5V4H8.74999V2.5C8.74999 2.09 8.40999 1.75 7.99999 1.75C7.58999 1.75 7.24999 2.09 7.24999 2.5V4.06C4.54999 4.31 3.23999 5.92 3.03999 8.31C3.01999 8.6 3.25999 8.84 3.53999 8.84H20.46C20.75 8.84 20.99 8.59 20.96 8.31C20.76 5.92 19.45 4.31 16.75 4.06Z" fill="#FCFCFE"/>
<path opacity="0.4" d="M21 11.3381V13.0781C21 13.6881 20.46 14.1581 19.86 14.0581C19.58 14.0181 19.29 13.9881 19 13.9881C17.5421 13.9908 16.1447 14.5711 15.1138 15.602C14.083 16.6328 13.5026 18.0302 13.5 19.4881C13.5 19.9481 13.68 20.5881 13.87 21.1681C13.9214 21.3188 13.9359 21.4795 13.9125 21.637C13.8891 21.7944 13.8284 21.9439 13.7354 22.0731C13.6424 22.2023 13.5199 22.3074 13.3781 22.3796C13.2362 22.4518 13.0792 22.489 12.92 22.4881H8C4.5 22.4881 3 20.4881 3 17.4881V11.3281C3 10.7781 3.45 10.3281 4 10.3281H20C20.55 10.3381 21 10.7881 21 11.3381Z" fill="#FCFCFE"/>
<path d="M8.5 15.4999C8.24 15.4999 7.98 15.3899 7.79 15.2099C7.61 15.0199 7.5 14.7599 7.5 14.4999C7.5 14.2399 7.61 13.9799 7.79 13.7899C8.02 13.5599 8.37 13.4499 8.7 13.5199C8.76 13.5299 8.82 13.5499 8.88 13.5799C8.94 13.5999 9 13.6299 9.06 13.6699L9.21 13.7899C9.39 13.9799 9.5 14.2399 9.5 14.4999C9.5 14.7599 9.39 15.0199 9.21 15.2099L9.06 15.3299C9 15.3699 8.94 15.3999 8.88 15.4199C8.82 15.4499 8.76 15.4699 8.7 15.4799C8.63 15.4899 8.56 15.4999 8.5 15.4999ZM12 15.4999C11.74 15.4999 11.48 15.3899 11.29 15.2099C11.11 15.0199 11 14.7599 11 14.4999C11 14.2399 11.11 13.9799 11.29 13.7899C11.67 13.4199 12.34 13.4199 12.71 13.7899C12.89 13.9799 13 14.2399 13 14.4999C13 14.7599 12.89 15.0199 12.71 15.2099C12.52 15.3899 12.26 15.4999 12 15.4999ZM8.5 18.9989C8.24 18.9989 7.98 18.8889 7.79 18.7089C7.61 18.5189 7.5 18.2589 7.5 17.9989C7.5 17.7389 7.61 17.4789 7.79 17.2889C7.89 17.1989 7.99 17.1289 8.12 17.0789C8.49 16.9189 8.93 17.0089 9.21 17.2889C9.39 17.4789 9.5 17.7389 9.5 17.9989C9.5 18.2589 9.39 18.5189 9.21 18.7089C9.02 18.8889 8.76 18.9989 8.5 18.9989ZM21.83 16.6699C21.0787 15.9208 20.061 15.5001 19 15.5001C17.939 15.5001 16.9213 15.9208 16.17 16.6699C15.4208 17.4212 15.0002 18.4389 15.0002 19.4999C15.0002 20.5609 15.4208 21.5786 16.17 22.3299C16.9213 23.0791 17.939 23.4997 19 23.4997C20.061 23.4997 21.0787 23.0791 21.83 22.3299C22.5792 21.5786 22.9998 20.5609 22.9998 19.4999C22.9998 18.4389 22.5792 17.4212 21.83 16.6699ZM21.07 20.0599C20.94 20.1999 20.75 20.2799 20.54 20.2799H19.8V21.0599C19.8 21.2699 19.72 21.4499 19.58 21.5899C19.44 21.7299 19.26 21.8099 19.05 21.8099C18.64 21.8099 18.3 21.4699 18.3 21.0599V20.2799H17.55C17.3511 20.2799 17.1603 20.2009 17.0197 20.0602C16.879 19.9196 16.8 19.7288 16.8 19.5299C16.8 19.331 16.879 19.1402 17.0197 18.9996C17.1603 18.8589 17.3511 18.7799 17.55 18.7799H18.3V18.0699C18.3 17.871 18.379 17.6802 18.5197 17.5396C18.6603 17.3989 18.8511 17.3199 19.05 17.3199C19.2489 17.3199 19.4397 17.3989 19.5803 17.5396C19.721 17.6802 19.8 17.871 19.8 18.0699V18.7799H20.54C20.96 18.7799 21.29 19.1199 21.29 19.5299C21.29 19.7399 21.21 19.9299 21.07 20.0599Z" fill="#FCFCFE"/>
</svg>
