<svg width="32" height="32" viewBox="0 0 32 32" fill="none" xmlns="http://www.w3.org/2000/svg">
<path d="M21.8333 4.74601V5.20185L22.2872 5.24388C23.994 5.40192 25.2071 5.98277 26.026 6.85218C26.8482 7.72503 27.3217 8.94024 27.4484 10.4544L27.4483 10.4544L27.4495 10.4659C27.4522 10.491 27.4445 10.5261 27.4106 10.5619C27.3761 10.5982 27.3283 10.6193 27.28 10.6193H4.72C4.67733 10.6193 4.63188 10.6007 4.59717 10.5645C4.56454 10.5306 4.54983 10.4905 4.552 10.4495C4.67931 8.93763 5.15262 7.7241 5.97395 6.85218C6.79292 5.98277 8.00598 5.40192 9.71276 5.24388L10.1667 5.20185V4.74601V2.66602C10.1667 2.39549 10.3961 2.16602 10.6667 2.16602C10.9372 2.16602 11.1667 2.39549 11.1667 2.66602V4.66602V5.16602H11.6667H20.3333H20.8333V4.66602V2.66602C20.8333 2.39549 21.0628 2.16602 21.3333 2.16602C21.6038 2.16602 21.8333 2.39549 21.8333 2.66602V4.74601Z" fill="#757575" stroke="#757575"/>
<path opacity="0.4" d="M26.6667 13.6191C27.1239 13.6191 27.5 13.9953 27.5 14.4525V22.6658C27.5 24.5892 27.0191 26.1156 26.0503 27.1589C25.0877 28.1956 23.5714 28.8325 21.3333 28.8325H10.6667C8.42863 28.8325 6.91232 28.1956 5.94973 27.1589C4.98091 26.1156 4.5 24.5892 4.5 22.6658V14.4525C4.5 13.9953 4.87614 13.6191 5.33333 13.6191H26.6667Z" fill="#757575" stroke="#757575"/>
<path d="M11.6415 17.8981L11.6509 17.9022L11.6605 17.9058C11.7721 17.9487 11.8564 18.004 11.9218 18.0681C12.0769 18.2344 12.1667 18.4577 12.1667 18.6658C12.1667 18.872 12.0786 19.093 11.9262 19.2587C11.7605 19.4111 11.5395 19.4992 11.3333 19.4992C11.1272 19.4992 10.9062 19.4111 10.7404 19.2587C10.5881 19.093 10.5 18.872 10.5 18.6658C10.5 18.4576 10.5898 18.2343 10.745 18.0681C10.9764 17.8405 11.3422 17.7686 11.6415 17.8981Z" fill="#757575" stroke="#757575"/>
<path d="M16 19.9992C15.6533 19.9992 15.3067 19.8525 15.0533 19.6125C14.8133 19.3592 14.6667 19.0125 14.6667 18.6658C14.6667 18.3192 14.8133 17.9725 15.0533 17.7192C15.1733 17.5992 15.32 17.5058 15.4933 17.4392C15.9867 17.2258 16.5733 17.3459 16.9467 17.7192C17.1867 17.9725 17.3333 18.3192 17.3333 18.6658C17.3333 19.0125 17.1867 19.3592 16.9467 19.6125C16.88 19.6658 16.8133 19.7192 16.7467 19.7725C16.6667 19.8258 16.5867 19.8659 16.5067 19.8925C16.4267 19.9325 16.3467 19.9592 16.2667 19.9725C16.1733 19.9859 16.0933 19.9992 16 19.9992Z" fill="#757575"/>
<path d="M20.3395 17.9073L20.3514 17.9027L20.3631 17.8976C20.5034 17.8352 20.6643 17.8167 20.8353 17.8509L20.8432 17.8525L20.8511 17.8538C20.8772 17.8582 20.9098 17.8679 20.9497 17.8879L20.9815 17.9038L21.0152 17.915C21.0439 17.9246 21.0789 17.9405 21.1201 17.9664L21.201 18.0311L21.2711 18.0872C21.4163 18.2514 21.5 18.4664 21.5 18.6673C21.5 18.8683 21.4163 19.0833 21.2711 19.2475L21.201 19.3035L21.1201 19.3682C21.0789 19.3942 21.0439 19.4101 21.0152 19.4197L20.9815 19.4309L20.9497 19.4468C20.9119 19.4657 20.8807 19.4754 20.8554 19.4801C20.7566 19.4941 20.703 19.5007 20.6667 19.5007C20.4605 19.5007 20.2395 19.4126 20.0738 19.2602C19.9214 19.0945 19.8333 18.8735 19.8333 18.6673C19.8333 18.4628 19.92 18.2437 20.0701 18.0784C20.1656 17.9944 20.2443 17.9439 20.3395 17.9073Z" fill="#757575" stroke="#757575"/>
<path d="M11.019 24.0985L11.019 24.0983L11.0062 24.0934C10.911 24.0568 10.8323 24.0063 10.7368 23.9223C10.5867 23.757 10.5 23.5379 10.5 23.3333C10.5 23.1288 10.5867 22.9097 10.7368 22.7444C10.8323 22.6604 10.911 22.6099 11.0062 22.5733L11.0181 22.5688L11.0297 22.5636C11.17 22.5012 11.331 22.4828 11.5019 22.517L11.5098 22.5185L11.5178 22.5199C11.5439 22.5242 11.5764 22.5339 11.6164 22.5539L11.6482 22.5698L11.6819 22.581C11.7106 22.5906 11.7456 22.6065 11.7868 22.6324L11.8677 22.6971L11.9377 22.7532C12.083 22.9174 12.1667 23.1324 12.1667 23.3333C12.1667 23.5352 12.0823 23.7512 11.9358 23.9157C11.924 23.9256 11.9131 23.9349 11.9034 23.9433C11.8958 23.9499 11.8893 23.9555 11.8835 23.9605C11.8737 23.969 11.8656 23.976 11.8562 23.984C11.831 24.0055 11.8218 24.0117 11.8218 24.0118L11.8126 24.0174L11.8027 24.024C11.7545 24.0561 11.7142 24.0749 11.6819 24.0857L11.6482 24.0969L11.6164 24.1128C11.5785 24.1317 11.5473 24.1414 11.522 24.1461C11.5153 24.1471 11.509 24.148 11.5028 24.1488C11.4147 24.1615 11.3785 24.1667 11.3333 24.1667C11.2358 24.1667 11.1278 24.1438 11.019 24.0985Z" fill="#757575" stroke="#757575"/>
<path d="M16 24.1676C15.7938 24.1676 15.5728 24.0795 15.4071 23.9271C15.2547 23.7614 15.1667 23.5404 15.1667 23.3342C15.1667 23.1261 15.2565 22.9028 15.4115 22.7365C15.5502 22.6007 15.7635 22.5176 16 22.5176C16.2365 22.5176 16.4498 22.6007 16.5885 22.7365C16.7435 22.9028 16.8333 23.1261 16.8333 23.3342C16.8333 23.5404 16.7452 23.7614 16.5929 23.9271C16.4272 24.0795 16.2062 24.1676 16 24.1676Z" fill="#757575" stroke="#757575"/>
<path d="M20.6667 24.1676C20.4605 24.1676 20.2395 24.0795 20.0738 23.9271C19.9214 23.7614 19.8333 23.5404 19.8333 23.3342C19.8333 23.1261 19.9231 22.9028 20.0782 22.7365C20.2169 22.6007 20.4302 22.5176 20.6667 22.5176C20.9032 22.5176 21.1165 22.6007 21.2552 22.7365C21.4102 22.9028 21.5 23.1261 21.5 23.3342C21.5 23.5404 21.4119 23.7614 21.2596 23.9271C21.0938 24.0795 20.8728 24.1676 20.6667 24.1676Z" fill="#757575" stroke="#757575"/>
</svg>
