<svg width="32" height="32" viewBox="0 0 32 32" fill="none" xmlns="http://www.w3.org/2000/svg">
<path opacity="0.4" d="M15.7198 18.9467L11.3598 23.3067C10.8798 22.8801 10.4132 22.4401 9.95984 21.9867C8.5865 20.6001 7.3465 19.1467 6.23984 17.6267C5.1465 16.1067 4.2665 14.5867 3.6265 13.0801C2.9865 11.5601 2.6665 10.1067 2.6665 8.72008C2.6665 7.81341 2.8265 6.94675 3.1465 6.14675C3.4665 5.33341 3.97317 4.58675 4.67984 3.92008C5.53317 3.08008 6.4665 2.66675 7.45317 2.66675C7.8265 2.66675 8.19984 2.74675 8.53317 2.90675C8.87984 3.06675 9.1865 3.30675 9.4265 3.65341L12.5198 8.01342C12.7598 8.34675 12.9332 8.65341 13.0532 8.94675C13.1732 9.22675 13.2398 9.50675 13.2398 9.76008C13.2398 10.0801 13.1465 10.4001 12.9598 10.7067C12.7865 11.0134 12.5332 11.3334 12.2132 11.6534L11.1998 12.7067C11.0532 12.8534 10.9865 13.0267 10.9865 13.2401C10.9865 13.3467 10.9998 13.4401 11.0265 13.5467C11.0665 13.6534 11.1065 13.7334 11.1332 13.8134C11.3732 14.2534 11.7865 14.8267 12.3732 15.5201C12.9732 16.2134 13.6132 16.9201 14.3065 17.6267C14.7865 18.0934 15.2532 18.5467 15.7198 18.9467Z" fill="#757575"/>
<path d="M29.2931 24.44C29.2931 24.8133 29.2265 25.2 29.0931 25.5733C29.0531 25.68 29.0131 25.7866 28.9598 25.8933C28.7331 26.3733 28.4398 26.8266 28.0531 27.2533C27.3998 27.9733 26.6798 28.4933 25.8665 28.8266C25.8531 28.8266 25.8398 28.84 25.8265 28.84C25.0398 29.16 24.1865 29.3333 23.2665 29.3333C21.9065 29.3333 20.4531 29.0133 18.9198 28.36C17.3865 27.7066 15.8531 26.8266 14.3331 25.72C13.8131 25.3333 13.2931 24.9466 12.7998 24.5333L17.1598 20.1733C17.5331 20.4533 17.8665 20.6666 18.1465 20.8133C18.2131 20.84 18.2931 20.88 18.3865 20.92C18.4931 20.96 18.5998 20.9733 18.7198 20.9733C18.9465 20.9733 19.1198 20.8933 19.2665 20.7466L20.2798 19.7466C20.6131 19.4133 20.9331 19.16 21.2398 19C21.5465 18.8133 21.8531 18.72 22.1865 18.72C22.4398 18.72 22.7065 18.7733 22.9998 18.8933C23.2931 19.0133 23.5998 19.1866 23.9331 19.4133L28.3465 22.5466C28.6931 22.7866 28.9331 23.0666 29.0798 23.4C29.2131 23.7333 29.2931 24.0666 29.2931 24.44Z" fill="#757575"/>
</svg>
