<svg width="32" height="32" viewBox="0 0 32 32" fill="none" xmlns="http://www.w3.org/2000/svg">
<path d="M24.8933 2.6665H22.3599C19.4533 2.6665 17.9199 4.19984 17.9199 7.1065V9.63984C17.9199 12.5465 19.4533 14.0798 22.3599 14.0798H24.8933C27.7999 14.0798 29.3333 12.5465 29.3333 9.63984V7.1065C29.3333 4.19984 27.7999 2.6665 24.8933 2.6665Z" fill="#446CB3"/>
<path d="M9.65317 17.9067H7.11984C4.19984 17.9067 2.6665 19.4401 2.6665 22.3467V24.8801C2.6665 27.8001 4.19984 29.3334 7.1065 29.3334H9.63984C12.5465 29.3334 14.0798 27.8001 14.0798 24.8934V22.3601C14.0932 19.4401 12.5598 17.9067 9.65317 17.9067Z" fill="#446CB3"/>
<path d="M8.3865 14.1065C11.5456 14.1065 14.1065 11.5456 14.1065 8.3865C14.1065 5.22743 11.5456 2.6665 8.3865 2.6665C5.22743 2.6665 2.6665 5.22743 2.6665 8.3865C2.6665 11.5456 5.22743 14.1065 8.3865 14.1065Z" fill="#446CB3"/>
<path d="M23.6136 29.3336C26.7726 29.3336 29.3336 26.7726 29.3336 23.6136C29.3336 20.4545 26.7726 17.8936 23.6136 17.8936C20.4545 17.8936 17.8936 20.4545 17.8936 23.6136C17.8936 26.7726 20.4545 29.3336 23.6136 29.3336Z" fill="#446CB3"/>
</svg>
