<svg width="32" height="32" viewBox="0 0 32 32" fill="none" xmlns="http://www.w3.org/2000/svg">
<path opacity="0.4" d="M24.8933 2.66675H22.3599C19.4533 2.66675 17.9199 4.20008 17.9199 7.10675V9.64008C17.9199 12.5467 19.4533 14.0801 22.3599 14.0801H24.8933C27.7999 14.0801 29.3333 12.5467 29.3333 9.64008V7.10675C29.3333 4.20008 27.7999 2.66675 24.8933 2.66675Z" fill="#446CB3"/>
<path opacity="0.4" d="M9.65317 17.9067H7.11984C4.19984 17.9067 2.6665 19.4401 2.6665 22.3467V24.8801C2.6665 27.8001 4.19984 29.3334 7.1065 29.3334H9.63984C12.5465 29.3334 14.0798 27.8001 14.0798 24.8934V22.3601C14.0932 19.4401 12.5598 17.9067 9.65317 17.9067Z" fill="#446CB3"/>
<path d="M8.3865 14.1067C11.5456 14.1067 14.1065 11.5458 14.1065 8.38675C14.1065 5.22768 11.5456 2.66675 8.3865 2.66675C5.22743 2.66675 2.6665 5.22768 2.6665 8.38675C2.6665 11.5458 5.22743 14.1067 8.3865 14.1067Z" fill="#446CB3"/>
<path d="M23.6136 29.3333C26.7726 29.3333 29.3336 26.7724 29.3336 23.6133C29.3336 20.4542 26.7726 17.8933 23.6136 17.8933C20.4545 17.8933 17.8936 20.4542 17.8936 23.6133C17.8936 26.7724 20.4545 29.3333 23.6136 29.3333Z" fill="#446CB3"/>
</svg>
