<svg width="24" height="24" viewBox="0 0 24 24" fill="none" xmlns="http://www.w3.org/2000/svg">
<path fill-rule="evenodd" clip-rule="evenodd" d="M18.8443 4.4953C18.1839 3.8349 17.1132 3.8349 16.4528 4.4953L11.6693 9.2788L6.97166 4.58117C6.31126 3.92078 5.24055 3.92078 4.58016 4.58117C3.91976 5.24156 3.91976 6.31228 4.58016 6.97267L9.27779 11.6703L4.4953 16.4528C3.8349 17.1132 3.8349 18.1839 4.4953 18.8443C5.15569 19.5047 6.2264 19.5047 6.8868 18.8443L11.6693 14.0618L16.5377 18.9302C17.1981 19.5906 18.2688 19.5906 18.9292 18.9302C19.5896 18.2698 19.5896 17.1991 18.9292 16.5387L14.0608 11.6703L18.8443 6.8868C19.5047 6.2264 19.5047 5.15569 18.8443 4.4953Z" fill="#F76F6F"/>
</svg>
