<svg width="48" height="48" viewBox="0 0 48 48" fill="none" xmlns="http://www.w3.org/2000/svg">
<rect width="48" height="48" rx="8" fill="#FFB800"/>
<path d="M19.4315 33.8434L19.3829 33.8337H19.3334H18.6667C15.9051 33.8337 13.8146 33.4527 12.4044 32.2617C11.0139 31.0873 10.1667 29.0186 10.1667 25.3337V18.667C10.1667 15.8041 10.9204 13.7005 12.3103 12.3105C13.7002 10.9206 15.8039 10.167 18.6667 10.167H29.3334C32.1963 10.167 34.2999 10.9206 35.6899 12.3105C37.0798 13.7005 37.8334 15.8041 37.8334 18.667V25.3337C37.8334 28.1966 37.0798 30.3002 35.6899 31.6901C34.2999 33.08 32.1963 33.8337 29.3334 33.8337H28.6667C28.3833 33.8337 28.1578 33.9767 28.016 34.1469L28.0078 34.1567L28.0001 34.167L26.0009 36.8326C26.0008 36.8327 26.0008 36.8327 26.0008 36.8327C25.4687 37.5382 24.7424 37.9137 24.0001 37.9137C23.2579 37.9137 22.5316 37.5383 21.9996 36.833C21.9995 36.8328 21.9994 36.8327 21.9993 36.8326L20.0001 34.167C19.9357 34.0812 19.8575 34.0283 19.8217 34.0052C19.7758 33.9756 19.729 33.9514 19.689 33.9326C19.6169 33.8988 19.5196 33.861 19.4315 33.8434ZM22.8001 36.2337L22.8022 36.2364C23.1039 36.633 23.522 36.8937 24.0001 36.8937C24.4782 36.8937 24.8962 36.633 25.198 36.2364L25.2001 36.2337L27.2001 33.567C27.5457 33.1062 28.0908 32.8337 28.6667 32.8337H29.3334C31.7884 32.8337 33.6925 32.2616 34.977 30.9772C36.2614 29.6928 36.8334 27.7887 36.8334 25.3337V18.667C36.8334 16.212 36.2614 14.3079 34.977 13.0234C33.6925 11.739 31.7884 11.167 29.3334 11.167H18.6667C16.2118 11.167 14.3076 11.739 13.0232 13.0234C11.7388 14.3079 11.1667 16.212 11.1667 18.667V25.3337C11.1667 28.3691 11.6791 30.3193 12.9866 31.4691C14.2767 32.6037 16.2109 32.8337 18.6667 32.8337H19.3334C19.855 32.8337 20.4809 33.1454 20.8008 33.5679C20.8009 33.5681 20.8011 33.5683 20.8013 33.5685L22.8001 36.2337Z" stroke="#FCFCFE"/>
<path d="M30.6666 19.667H17.3333C16.7866 19.667 16.3333 19.2137 16.3333 18.667C16.3333 18.1203 16.7866 17.667 17.3333 17.667H30.6666C31.2133 17.667 31.6666 18.1203 31.6666 18.667C31.6666 19.2137 31.2133 19.667 30.6666 19.667Z" fill="#FCFCFE"/>
<path d="M25.3333 26.333H17.3333C16.7866 26.333 16.3333 25.8797 16.3333 25.333C16.3333 24.7863 16.7866 24.333 17.3333 24.333H25.3333C25.8799 24.333 26.3333 24.7863 26.3333 25.333C26.3333 25.8797 25.8799 26.333 25.3333 26.333Z" fill="#FCFCFE"/>
</svg>
