<svg width="24" height="25" viewBox="0 0 24 25" fill="none" xmlns="http://www.w3.org/2000/svg">
<path d="M12.75 16.0785H13.4C14.05 16.0785 14.59 15.4985 14.59 14.7985C14.59 13.9285 14.28 13.7585 13.77 13.5785L12.76 13.2285V16.0785H12.75Z" fill="#5D9829"/>
<path d="M11.9699 2.05861C6.44994 2.07861 1.97994 6.56861 1.99994 12.0886C2.01994 17.6086 6.50994 22.0786 12.0299 22.0586C17.5499 22.0386 22.0199 17.5486 21.9999 12.0286C21.9799 6.50861 17.4899 2.04861 11.9699 2.05861ZM14.2599 12.1586C15.0399 12.4286 16.0899 13.0086 16.0899 14.7986C16.0899 16.3386 14.8799 17.5786 13.3999 17.5786H12.7499V18.1586C12.7499 18.5686 12.4099 18.9086 11.9999 18.9086C11.5899 18.9086 11.2499 18.5686 11.2499 18.1586V17.5786H10.8899C9.24995 17.5786 7.91994 16.1986 7.91994 14.4986C7.91994 14.0886 8.25994 13.7486 8.66994 13.7486C9.07994 13.7486 9.41994 14.0886 9.41994 14.4986C9.41994 15.3686 10.0799 16.0786 10.8899 16.0786H11.2499V12.6986L9.73994 12.1586C8.95994 11.8886 7.90994 11.3086 7.90994 9.51861C7.90994 7.97861 9.11995 6.73861 10.5999 6.73861H11.2499V6.15861C11.2499 5.74861 11.5899 5.40861 11.9999 5.40861C12.4099 5.40861 12.7499 5.74861 12.7499 6.15861V6.73861H13.1099C14.7499 6.73861 16.0799 8.11861 16.0799 9.81861C16.0799 10.2286 15.7399 10.5686 15.3299 10.5686C14.9199 10.5686 14.5799 10.2286 14.5799 9.81861C14.5799 8.94861 13.9199 8.23861 13.1099 8.23861H12.7499V11.6186L14.2599 12.1586Z" fill="#5D9829"/>
<path d="M9.42004 9.52828C9.42004 10.3983 9.73004 10.5683 10.24 10.7483L11.25 11.0983V8.23828H10.6C9.95004 8.23828 9.42004 8.81828 9.42004 9.52828Z" fill="#5D9829"/>
</svg>
