<svg width="26" height="26" viewBox="0 0 26 26" fill="none" xmlns="http://www.w3.org/2000/svg">
<path d="M19.364 8.05063L8.05028 19.3643C7.66372 19.7509 7.02261 19.7509 6.63606 19.3643C6.24951 18.9778 6.24951 18.3367 6.63606 17.9501L17.9498 6.63641C18.3363 6.24986 18.9774 6.24986 19.364 6.63641C19.7505 7.02296 19.7505 7.66407 19.364 8.05063Z" fill="#757575"/>
<path d="M19.364 19.3646C18.9774 19.7511 18.3363 19.7511 17.9498 19.3646L6.63606 8.05086C6.24951 7.66431 6.24951 7.02319 6.63606 6.63664C7.02261 6.25009 7.66372 6.25009 8.05028 6.63664L19.364 17.9504C19.7505 18.3369 19.7505 18.978 19.364 19.3646Z" fill="#757575"/>
</svg>
