<svg width="32" height="32" viewBox="0 0 32 32" fill="none" xmlns="http://www.w3.org/2000/svg">
<path opacity="0.4" d="M26.72 9.09358L19.04 3.72024C16.9467 2.25358 13.7333 2.33358 11.72 3.89358L5.04 9.10691C3.70667 10.1469 2.65334 12.2802 2.65334 13.9602V23.1602C2.65334 26.5602 5.41334 29.3336 8.81334 29.3336H23.1867C26.5867 29.3336 29.3467 26.5736 29.3467 23.1736V14.1336C29.3467 12.3336 28.1867 10.1202 26.72 9.09358Z" fill="#757575"/>
<path d="M16 25C15.4533 25 15 24.5467 15 24V20C15 19.4533 15.4533 19 16 19C16.5467 19 17 19.4533 17 20V24C17 24.5467 16.5467 25 16 25Z" fill="#757575"/>
</svg>
