<svg width="16" height="16" viewBox="0 0 16 16" fill="none" xmlns="http://www.w3.org/2000/svg">
<path d="M7.99992 15.1673C4.04659 15.1673 0.833252 11.954 0.833252 8.00065C0.833252 4.04732 4.04659 0.833984 7.99992 0.833984C11.9533 0.833984 15.1666 4.04732 15.1666 8.00065C15.1666 11.954 11.9533 15.1673 7.99992 15.1673ZM7.99992 1.83398C4.59992 1.83398 1.83325 4.60065 1.83325 8.00065C1.83325 11.4007 4.59992 14.1673 7.99992 14.1673C11.3999 14.1673 14.1666 11.4007 14.1666 8.00065C14.1666 4.60065 11.3999 1.83398 7.99992 1.83398Z" fill="#2E3B51"/>
<path d="M8 9.16732C7.72667 9.16732 7.5 8.94065 7.5 8.66732V5.33398C7.5 5.06065 7.72667 4.83398 8 4.83398C8.27333 4.83398 8.5 5.06065 8.5 5.33398V8.66732C8.5 8.94065 8.27333 9.16732 8 9.16732Z" fill="#2E3B51"/>
<path d="M7.99992 11.3339C7.91325 11.3339 7.82659 11.3139 7.74659 11.2806C7.66659 11.2472 7.59325 11.2006 7.52659 11.1406C7.46659 11.0739 7.41992 11.0072 7.38659 10.9206C7.35325 10.8406 7.33325 10.7539 7.33325 10.6672C7.33325 10.5806 7.35325 10.4939 7.38659 10.4139C7.41992 10.3339 7.46659 10.2606 7.52659 10.1939C7.59325 10.1339 7.66659 10.0872 7.74659 10.0539C7.90659 9.98724 8.09325 9.98724 8.25325 10.0539C8.33325 10.0872 8.40659 10.1339 8.47325 10.1939C8.53325 10.2606 8.57992 10.3339 8.61325 10.4139C8.64659 10.4939 8.66659 10.5806 8.66659 10.6672C8.66659 10.7539 8.64659 10.8406 8.61325 10.9206C8.57992 11.0072 8.53325 11.0739 8.47325 11.1406C8.40659 11.2006 8.33325 11.2472 8.25325 11.2806C8.17325 11.3139 8.08659 11.3339 7.99992 11.3339Z" fill="#2E3B51"/>
</svg>
