<svg width="16" height="16" viewBox="0 0 16 16" fill="none" xmlns="http://www.w3.org/2000/svg">
<path d="M8.00675 15.1596C7.58675 15.1596 7.17341 15.0196 6.84675 14.7396L5.79341 13.8396C5.68674 13.7462 5.42008 13.6529 5.28008 13.6529H4.11341C3.12674 13.6529 2.32674 12.8529 2.32674 11.8662V10.7262C2.32674 10.5862 2.23341 10.3196 2.14674 10.2196L1.24008 9.15289C0.693411 8.50622 0.693411 7.49289 1.24008 6.83956L2.14674 5.77289C2.23341 5.67289 2.32674 5.40622 2.32674 5.26622V4.13289C2.32674 3.14622 3.12674 2.34622 4.11341 2.34622H5.26675C5.40675 2.34622 5.66675 2.24622 5.78008 2.15289L6.83341 1.25289C7.48675 0.699557 8.50674 0.699557 9.16008 1.25289L10.2134 2.15289C10.3201 2.24622 10.5934 2.33956 10.7334 2.33956H11.8667C12.8534 2.33956 13.6534 3.13956 13.6534 4.12622V5.25956C13.6534 5.39956 13.7534 5.65956 13.8467 5.77289L14.7467 6.82622C15.3067 7.48622 15.3001 8.50622 14.7467 9.15289L13.8467 10.2062C13.7534 10.3196 13.6601 10.5796 13.6601 10.7196V11.8529C13.6601 12.8396 12.8601 13.6396 11.8734 13.6396H10.7401C10.6001 13.6396 10.3401 13.7396 10.2201 13.8329L9.16675 14.7329C8.84008 15.0196 8.42008 15.1596 8.00675 15.1596ZM4.11341 3.34622C3.68008 3.34622 3.32674 3.69956 3.32674 4.13289V5.26622C3.32674 5.64622 3.15341 6.12622 2.90674 6.41956L2.00008 7.48622C1.77341 7.75956 1.77341 8.23956 2.00008 8.50622L2.90008 9.56622C3.14008 9.83956 3.32008 10.3396 3.32008 10.7196V11.8596C3.32008 12.2929 3.67341 12.6462 4.10674 12.6462H5.26675C5.64008 12.6462 6.13341 12.8262 6.42675 13.0729L7.48674 13.9796C7.76008 14.2129 8.24008 14.2129 8.51341 13.9796L9.56675 13.0796C9.86675 12.8262 10.3534 12.6529 10.7267 12.6529H11.8601C12.2934 12.6529 12.6467 12.2996 12.6467 11.8662V10.7329C12.6467 10.3596 12.8267 9.87289 13.0734 9.57289L13.9801 8.51289C14.2134 8.23956 14.2134 7.75956 13.9801 7.48622L13.0801 6.43289C12.8267 6.13289 12.6534 5.64622 12.6534 5.27289V4.13289C12.6534 3.69956 12.3001 3.34622 11.8667 3.34622H10.7334C10.3534 3.34622 9.86008 3.16622 9.56675 2.91956L8.50675 2.01289C8.23341 1.77956 7.76008 1.77956 7.48008 2.01289L6.43341 2.91956C6.13341 3.16622 5.64675 3.34622 5.26675 3.34622H4.11341Z" fill="#2E3B51"/>
<path d="M7.99992 11.2474C7.63325 11.2474 7.33325 10.9474 7.33325 10.5807C7.33325 10.2141 7.62659 9.91406 7.99992 9.91406C8.36659 9.91406 8.66659 10.2141 8.66659 10.5807C8.66659 10.9474 8.37325 11.2474 7.99992 11.2474Z" fill="#2E3B51"/>
<path d="M8 9.14659C7.72667 9.14659 7.5 8.91992 7.5 8.64659V5.41992C7.5 5.14659 7.72667 4.91992 8 4.91992C8.27333 4.91992 8.5 5.14659 8.5 5.41992V8.63992C8.5 8.91992 8.28 9.14659 8 9.14659Z" fill="#2E3B51"/>
</svg>
