<svg width="20" height="20" viewBox="0 0 20 20" fill="none" xmlns="http://www.w3.org/2000/svg">
<path opacity="0.4" d="M10.0001 18.3327C14.6025 18.3327 18.3334 14.6017 18.3334 9.99935C18.3334 5.39698 14.6025 1.66602 10.0001 1.66602C5.39771 1.66602 1.66675 5.39698 1.66675 9.99935C1.66675 14.6017 5.39771 18.3327 10.0001 18.3327Z" fill="#446CB3"/>
<path d="M10 11.4577C10.3417 11.4577 10.625 11.1743 10.625 10.8327V6.66602C10.625 6.32435 10.3417 6.04102 10 6.04102C9.65833 6.04102 9.375 6.32435 9.375 6.66602V10.8327C9.375 11.1743 9.65833 11.4577 10 11.4577Z" fill="#446CB3"/>
<path d="M10.7667 13.0164C10.7251 12.9164 10.6667 12.8247 10.5917 12.7414C10.5084 12.6664 10.4167 12.6081 10.3167 12.5664C10.1167 12.4831 9.88341 12.4831 9.68341 12.5664C9.58341 12.6081 9.49175 12.6664 9.40841 12.7414C9.33341 12.8247 9.27508 12.9164 9.23341 13.0164C9.19175 13.1164 9.16675 13.2247 9.16675 13.3331C9.16675 13.4414 9.19175 13.5497 9.23341 13.6497C9.27508 13.7581 9.33341 13.8414 9.40841 13.9247C9.49175 13.9997 9.58341 14.0581 9.68341 14.0997C9.78341 14.1414 9.89175 14.1664 10.0001 14.1664C10.1084 14.1664 10.2167 14.1414 10.3167 14.0997C10.4167 14.0581 10.5084 13.9997 10.5917 13.9247C10.6667 13.8414 10.7251 13.7581 10.7667 13.6497C10.8084 13.5497 10.8334 13.4414 10.8334 13.3331C10.8334 13.2247 10.8084 13.1164 10.7667 13.0164Z" fill="#446CB3"/>
</svg>
