<svg width="40" height="40" viewBox="0 0 40 40" fill="none" xmlns="http://www.w3.org/2000/svg">
<path d="M24.9997 37.9163H14.9997C5.94967 37.9163 2.08301 34.0497 2.08301 24.9997V14.9997C2.08301 5.94967 5.94967 2.08301 14.9997 2.08301H24.9997C34.0497 2.08301 37.9163 5.94967 37.9163 14.9997V24.9997C37.9163 34.0497 34.0497 37.9163 24.9997 37.9163ZM14.9997 4.58301C7.31634 4.58301 4.58301 7.31634 4.58301 14.9997V24.9997C4.58301 32.683 7.31634 35.4163 14.9997 35.4163H24.9997C32.683 35.4163 35.4163 32.683 35.4163 24.9997V14.9997C35.4163 7.31634 32.683 4.58301 24.9997 4.58301H14.9997Z" fill="#FCFCFE"/>
<path d="M20.0003 27.0837C16.1003 27.0837 12.917 23.9003 12.917 20.0003C12.917 16.1003 16.1003 12.917 20.0003 12.917C23.9003 12.917 27.0837 16.1003 27.0837 20.0003C27.0837 23.9003 23.9003 27.0837 20.0003 27.0837ZM20.0003 15.417C17.467 15.417 15.417 17.467 15.417 20.0003C15.417 22.5337 17.467 24.5837 20.0003 24.5837C22.5337 24.5837 24.5837 22.5337 24.5837 20.0003C24.5837 17.467 22.5337 15.417 20.0003 15.417Z" fill="#FCFCFE"/>
<path d="M28.3332 12.5003C28.1165 12.5003 27.8998 12.4503 27.6998 12.367C27.4998 12.2837 27.3165 12.167 27.1498 12.017C26.9998 11.8503 26.8665 11.667 26.7832 11.467C26.6998 11.267 26.6665 11.0503 26.6665 10.8337C26.6665 10.617 26.6998 10.4003 26.7832 10.2003C26.8832 9.98366 26.9998 9.81699 27.1498 9.65033C27.2332 9.58366 27.3165 9.50033 27.3998 9.45033C27.4998 9.38366 27.5998 9.33366 27.6998 9.30033C27.7998 9.25033 27.8998 9.217 28.0165 9.20033C28.5498 9.08366 29.1165 9.267 29.5165 9.65033C29.6665 9.81699 29.7832 9.98366 29.8665 10.2003C29.9498 10.4003 29.9998 10.617 29.9998 10.8337C29.9998 11.0503 29.9498 11.267 29.8665 11.467C29.7832 11.667 29.6665 11.8503 29.5165 12.017C29.3498 12.167 29.1665 12.2837 28.9665 12.367C28.7665 12.4503 28.5498 12.5003 28.3332 12.5003Z" fill="#FCFCFE"/>
</svg>
