<svg width="48" height="48" viewBox="0 0 48 48" fill="none" xmlns="http://www.w3.org/2000/svg">
<rect width="48" height="48" rx="8" fill="#8DE946"/>
<path d="M25.3333 20.5H17.3333C17.0627 20.5 16.8333 20.2705 16.8333 20C16.8333 19.7295 17.0627 19.5 17.3333 19.5H25.3333C25.6038 19.5 25.8333 19.7295 25.8333 20C25.8333 20.2705 25.6038 20.5 25.3333 20.5Z" fill="#FCFCFE" stroke="#FCFCFE"/>
<path d="M33.3864 27.7332C31.3731 27.7332 29.6665 26.2399 29.5065 24.3199C29.3998 23.2132 29.7998 22.1333 30.5998 21.3466C31.2665 20.6533 32.2131 20.2666 33.2131 20.2666H35.9998C37.3198 20.3066 38.3331 21.3465 38.3331 22.6265V25.3733C38.3331 26.6533 37.3198 27.6932 36.0398 27.7332H33.3864ZM35.9598 22.2666H33.2264C32.7598 22.2666 32.3332 22.4399 32.0265 22.7599C31.6398 23.1333 31.4531 23.6399 31.5065 24.1466C31.5731 25.0266 32.4264 25.7332 33.3864 25.7332H35.9998C36.1731 25.7332 36.3331 25.5733 36.3331 25.3733V22.6265C36.3331 22.4265 36.1731 22.2799 35.9598 22.2666Z" fill="#FCFCFE"/>
<path d="M29.3334 36.3337H17.3334C12.7467 36.3337 9.66675 33.2537 9.66675 28.667V19.3337C9.66675 15.227 12.2 12.2537 16.1334 11.7603C16.4934 11.707 16.9067 11.667 17.3334 11.667H29.3334C29.6534 11.667 30.0667 11.6803 30.4934 11.747C34.4267 12.2003 37.0001 15.187 37.0001 19.3337V21.267C37.0001 21.8137 36.5467 22.267 36.0001 22.267H33.2267C32.7601 22.267 32.3334 22.4403 32.0268 22.7603L32.0134 22.7737C31.6401 23.1337 31.4668 23.627 31.5068 24.1336C31.5734 25.0136 32.4267 25.7203 33.3867 25.7203H36.0001C36.5467 25.7203 37.0001 26.1736 37.0001 26.7203V28.6536C37.0001 33.2536 33.9201 36.3337 29.3334 36.3337ZM17.3334 13.667C17.0134 13.667 16.7067 13.6936 16.4001 13.7336C13.4667 14.107 11.6667 16.2403 11.6667 19.3337V28.667C11.6667 32.107 13.8934 34.3337 17.3334 34.3337H29.3334C32.7734 34.3337 35.0001 32.107 35.0001 28.667V27.7336H33.3867C31.3734 27.7336 29.6668 26.2403 29.5068 24.3203C29.4001 23.227 29.8001 22.1337 30.6001 21.3604C31.2934 20.6537 32.2267 20.267 33.2267 20.267H35.0001V19.3337C35.0001 16.2137 33.1734 14.067 30.2134 13.7203C29.8934 13.667 29.6134 13.667 29.3334 13.667H17.3334Z" fill="#FCFCFE"/>
</svg>
