<svg width="48" height="48" viewBox="0 0 48 48" fill="none" xmlns="http://www.w3.org/2000/svg">
<rect width="48" height="48" rx="8" fill="#F76F6F"/>
<path d="M23.0228 36.2233L23.0228 36.2233L23.0156 36.2208C20.549 35.3749 17.3233 33.4353 14.7193 30.5833C12.1199 27.7363 10.1667 24.0113 10.1667 19.5871C10.1667 15.1945 13.7183 11.6338 18.0801 11.6338C20.2009 11.6338 22.1795 12.4611 23.645 13.9392L24.0001 14.2973L24.3551 13.9392C25.8206 12.4611 27.7992 11.6338 29.9201 11.6338C34.2814 11.6338 37.8334 15.2074 37.8334 19.5871C37.8334 24.0181 35.8802 27.743 33.2809 30.5882C30.6771 33.4384 27.4515 35.3748 24.9846 36.2208L24.9845 36.2208L24.9774 36.2233C24.7144 36.318 24.3756 36.3671 24.0001 36.3671C23.6246 36.3671 23.2858 36.318 23.0228 36.2233ZM23.3449 35.2869L23.3486 35.2881C23.5447 35.3535 23.798 35.3738 24.0067 35.3738C24.2155 35.3738 24.4688 35.3535 24.6649 35.2881L24.6649 35.2881L24.6692 35.2867C26.2689 34.7372 29.2943 33.1724 31.9274 30.5819C34.5667 27.9853 36.8467 24.3212 36.8467 19.5871C36.8467 15.7537 33.7456 12.6338 29.9334 12.6338C27.7478 12.6338 25.7188 13.656 24.4115 15.4231L24.4109 15.4239C24.3349 15.527 24.1911 15.6005 24.0134 15.6005C23.8357 15.6005 23.6919 15.527 23.6159 15.4239L23.616 15.4238L23.6134 15.4205C22.28 13.6426 20.2658 12.6338 18.0801 12.6338C14.2679 12.6338 11.1667 15.7537 11.1667 19.5871C11.1667 24.3144 13.4433 27.9784 16.0809 30.5766C18.7121 33.1687 21.7378 34.7372 23.3449 35.2869Z" fill="#292D32" stroke="#FCFCFE"/>
</svg>
