<svg width="40" height="40" viewBox="0 0 40 40" fill="none" xmlns="http://www.w3.org/2000/svg">
<path d="M24.9997 37.9163H14.9997C5.94967 37.9163 2.08301 34.0497 2.08301 24.9997V14.9997C2.08301 5.94967 5.94967 2.08301 14.9997 2.08301H24.9997C34.0497 2.08301 37.9163 5.94967 37.9163 14.9997V24.9997C37.9163 34.0497 34.0497 37.9163 24.9997 37.9163ZM14.9997 4.58301C7.31634 4.58301 4.58301 7.31634 4.58301 14.9997V24.9997C4.58301 32.683 7.31634 35.4163 14.9997 35.4163H24.9997C32.683 35.4163 35.4163 32.683 35.4163 24.9997V14.9997C35.4163 7.31634 32.683 4.58301 24.9997 4.58301H14.9997Z" fill="#FCFCFE"/>
<path d="M12.291 13.8322C12.7251 14.2611 13.2496 14.4755 13.8645 14.4755C14.4433 14.4755 14.9406 14.2611 15.3566 13.8322C15.7907 13.3846 16.0077 12.8438 16.0077 12.2098C16.0077 11.5944 15.7907 11.0723 15.3566 10.6434C14.9406 10.2145 14.4433 10 13.8645 10C13.2496 10 12.7251 10.2145 12.291 10.6434C11.875 11.0723 11.667 11.5944 11.667 12.2098C11.667 12.8438 11.875 13.3846 12.291 13.8322Z" fill="#FCFCFE"/>
<path d="M15.7636 30V15.8741H11.7484V30H15.7636Z" fill="#FCFCFE"/>
<path d="M28.8338 16.965C28.0741 16.1072 26.8985 15.6783 25.3069 15.6783C24.1674 15.6783 23.2089 16.0606 22.4311 16.8252V15.8741H18.3888V30H22.4311V20.5455C22.4311 19.9674 22.5939 19.5012 22.9195 19.1469C23.245 18.7925 23.6972 18.6154 24.276 18.6154C24.8186 18.6154 25.2617 18.7925 25.6053 19.1469C25.967 19.5012 26.1479 19.9674 26.1479 20.5455V30H30.0003V20.5455C30.0003 19.0163 29.6115 17.8228 28.8338 16.965Z" fill="#FCFCFE"/>
</svg>
