<svg width="40" height="40" viewBox="0 0 40 40" fill="none" xmlns="http://www.w3.org/2000/svg">
<path opacity="0.4" d="M34.3666 14.0846C32.6166 6.38463 25.8999 2.91797 19.9999 2.91797C19.9999 2.91797 19.9999 2.91797 19.9832 2.91797C14.0999 2.91797 7.36658 6.36797 5.61658 14.068C3.66658 22.668 8.93325 29.9513 13.6999 34.5346C15.4666 36.2346 17.7332 37.0846 19.9999 37.0846C22.2666 37.0846 24.5332 36.2346 26.2832 34.5346C31.0499 29.9513 36.3166 22.6846 34.3666 14.0846Z" fill="#757575"/>
<path d="M20 22.4336C22.8995 22.4336 25.25 20.0831 25.25 17.1836C25.25 14.2841 22.8995 11.9336 20 11.9336C17.1005 11.9336 14.75 14.2841 14.75 17.1836C14.75 20.0831 17.1005 22.4336 20 22.4336Z" fill="#757575"/>
</svg>
