<svg width="40" height="40" viewBox="0 0 40 40" fill="none" xmlns="http://www.w3.org/2000/svg">
<path d="M25.3999 37.1161H25.1833C17.7833 37.1161 14.2166 34.1995 13.5999 27.6661C13.5333 26.9828 14.0333 26.3661 14.7333 26.2995C15.4166 26.2328 16.0333 26.7495 16.0999 27.4328C16.5833 32.6661 19.0499 34.6161 25.1999 34.6161H25.4166C32.1999 34.6161 34.5999 32.2161 34.5999 25.4328V14.5661C34.5999 7.78281 32.1999 5.38281 25.4166 5.38281H25.1999C19.0166 5.38281 16.5499 7.36615 16.0999 12.6995C16.0166 13.3828 15.4499 13.8995 14.7333 13.8328C14.0333 13.7828 13.5333 13.1661 13.5833 12.4828C14.1499 5.84948 17.7333 2.88281 25.1833 2.88281H25.3999C33.5833 2.88281 37.0833 6.38281 37.0833 14.5661V25.4328C37.0833 33.6161 33.5833 37.1161 25.3999 37.1161Z" fill="#2E3B51"/>
<path d="M24.8 21.25H3.33337C2.65004 21.25 2.08337 20.6833 2.08337 20C2.08337 19.3167 2.65004 18.75 3.33337 18.75H24.8C25.4834 18.75 26.05 19.3167 26.05 20C26.05 20.6833 25.5 21.25 24.8 21.25Z" fill="#2E3B51"/>
<path d="M21.0834 26.8324C20.7667 26.8324 20.45 26.7158 20.2 26.4658C19.7167 25.9824 19.7167 25.1824 20.2 24.6991L24.9 19.9991L20.2 15.2991C19.7167 14.8158 19.7167 14.0158 20.2 13.5324C20.6834 13.0491 21.4834 13.0491 21.9667 13.5324L27.55 19.1158C28.0334 19.5991 28.0334 20.3991 27.55 20.8824L21.9667 26.4658C21.7167 26.7158 21.4 26.8324 21.0834 26.8324Z" fill="#2E3B51"/>
</svg>
