<svg width="40" height="40" viewBox="0 0 40 40" fill="none" xmlns="http://www.w3.org/2000/svg">
<path opacity="0.4" d="M17.9333 3.33325C17.1333 3.33325 16.5 3.96659 16.5 4.76659V35.2499C16.5 36.0333 17.1333 36.6833 17.9333 36.6833C27.75 36.6833 34.6 29.8333 34.6 20.0166C34.6 10.1999 27.7333 3.33325 17.9333 3.33325Z" fill="#446CB3"/>
<path d="M26.4999 19.2334L21.7666 14.4833C21.2832 14 20.4832 14 19.9999 14.4833C19.5166 14.9667 19.5166 15.7667 19.9999 16.25L22.5999 18.85H6.6499C5.96657 18.85 5.3999 19.4167 5.3999 20.1C5.3999 20.7834 5.96657 21.35 6.6499 21.35H22.5999L19.9999 23.9667C19.5166 24.45 19.5166 25.25 19.9999 25.7333C20.2499 25.9833 20.5666 26.1 20.8832 26.1C21.1999 26.1 21.5166 25.9833 21.7666 25.7333L26.4999 20.9834C26.9999 20.5 26.9999 19.7167 26.4999 19.2334Z" fill="#446CB3"/>
</svg>
