<svg width="32" height="32" viewBox="0 0 32 32" fill="none" xmlns="http://www.w3.org/2000/svg">
<path opacity="0.4" d="M17.6532 3.16602C18.0075 3.16602 18.2998 3.4526 18.2998 3.81268V28.1993C18.2998 28.5537 18.0132 28.846 17.6532 28.846C13.8459 28.846 10.644 27.5197 8.39504 25.2708C6.14611 23.0219 4.81982 19.82 4.81982 16.0127C4.81982 12.2057 6.14926 9.00028 8.40017 6.74778C10.6511 4.49528 13.8531 3.16602 17.6532 3.16602Z" fill="#757575" stroke="#757575"/>
<path d="M27.0327 15.7398L27.0333 15.7404C27.2282 15.9353 27.2191 16.2405 27.0395 16.4138L27.0395 16.4138L27.0327 16.4206L23.2466 20.22C23.2465 20.2201 23.2464 20.2202 23.2463 20.2203C23.1451 20.3214 23.0213 20.3669 22.8935 20.3669C22.7656 20.3669 22.6417 20.3213 22.5404 20.22C22.349 20.0286 22.349 19.7052 22.5404 19.5138L24.6204 17.4338L25.4739 16.5802H24.2668H11.5068C11.2363 16.5802 11.0068 16.3507 11.0068 16.0802C11.0068 15.8097 11.2363 15.5802 11.5068 15.5802H24.2668H25.4739L24.6204 14.7267L22.5404 12.6467C22.349 12.4553 22.349 12.1318 22.5404 11.9404C22.7317 11.7491 23.0549 11.749 23.2464 11.9402C23.2464 11.9403 23.2465 11.9403 23.2466 11.9404L27.0327 15.7398Z" fill="#757575" stroke="#757575"/>
</svg>
