<svg width="32" height="32" viewBox="0 0 32 32" fill="none" xmlns="http://www.w3.org/2000/svg">
<path d="M13.7337 15.9995C13.7337 14.7467 14.7475 13.7329 16.0003 13.7329C17.2531 13.7329 18.2668 14.7467 18.2668 15.9995C18.2668 17.2523 17.2531 18.2661 16.0003 18.2661C14.7475 18.2661 13.7337 17.2523 13.7337 15.9995Z" fill="#757575"/>
<path d="M13.7337 8.24607C13.7337 6.99327 14.7475 5.97949 16.0003 5.97949C17.2531 5.97949 18.2668 6.99327 18.2668 8.24607C18.2668 9.49886 17.2531 10.5126 16.0003 10.5126C14.7475 10.5126 13.7337 9.49886 13.7337 8.24607Z" fill="#757575"/>
<path d="M13.7337 23.7524C13.7337 22.4996 14.7475 21.4858 16.0003 21.4858C17.2531 21.4858 18.2668 22.4996 18.2668 23.7524C18.2668 25.0052 17.2531 26.019 16.0003 26.019C14.7475 26.019 13.7337 25.0052 13.7337 23.7524Z" fill="#757575"/>
</svg>
