<svg width="32" height="32" viewBox="0 0 32 32" fill="none" xmlns="http://www.w3.org/2000/svg">
<path opacity="0.4" d="M25.3585 19.5776L25.3598 19.5797C25.8001 20.3022 25.8777 21.1546 25.5855 21.9299C25.2905 22.7128 24.6823 23.3066 23.8973 23.5645L23.8946 23.5654C21.361 24.4143 18.6948 24.8329 16.0268 24.8329C13.3588 24.8329 10.6934 24.4143 8.16113 23.5529L8.16012 23.5525C7.2964 23.2607 6.66533 22.6668 6.40413 21.9376L6.40415 21.9376L6.40271 21.9337C6.12735 21.1847 6.2177 20.3555 6.68199 19.5771C6.68224 19.5767 6.68248 19.5763 6.68273 19.5758L8.02793 17.3516L8.02798 17.3517L8.03198 17.3448C8.20265 17.0522 8.34995 16.6526 8.45424 16.2691C8.55842 15.8859 8.63342 15.4682 8.63342 15.1329V11.7595C8.63342 7.68847 11.9434 4.36621 16.0268 4.36621C20.1101 4.36621 23.4201 7.68847 23.4201 11.7595V15.1329C23.4201 15.4681 23.4951 15.8858 23.5991 16.2702C23.7035 16.6557 23.8502 17.0563 24.0186 17.353L24.0184 17.3531L24.0251 17.3642L25.3585 19.5776Z" fill="#757575" stroke="#757575"/>
<path d="M16.0269 3.16699C16.4865 3.16699 16.9226 3.27136 17.3104 3.46184C16.8923 3.39945 16.4638 3.36699 16.0269 3.36699C15.598 3.36699 15.1746 3.39702 14.7592 3.45731C15.1441 3.26991 15.5758 3.16699 16.0269 3.16699Z" fill="#757575" stroke="#757575"/>
<path d="M13.0929 27.2779C13.2841 27.3008 13.4804 27.3221 13.6776 27.3385C14.4491 27.4062 15.2369 27.447 16.0269 27.447C16.8042 27.447 17.5793 27.4061 18.338 27.3383L18.338 27.3384L18.341 27.3381C18.4155 27.331 18.4972 27.3244 18.5828 27.3176C18.6866 27.3093 18.796 27.3005 18.9052 27.2897C18.2718 28.222 17.2049 28.8337 16.0002 28.8337C15.078 28.8337 14.1693 28.4589 13.5334 27.7998L13.5247 27.7908L13.5155 27.7822C13.3584 27.6349 13.2165 27.4639 13.0929 27.2779Z" fill="#757575" stroke="#757575"/>
</svg>
