<svg width="32" height="32" viewBox="0 0 32 32" fill="none" xmlns="http://www.w3.org/2000/svg">
<path opacity="0.4" d="M15.9998 2.66602C12.5065 2.66602 9.6665 5.50602 9.6665 8.99935C9.6665 12.426 12.3465 15.1993 15.8398 15.3193C15.9465 15.306 16.0532 15.306 16.1332 15.3193C16.1598 15.3193 16.1732 15.3193 16.1998 15.3193C16.2132 15.3193 16.2132 15.3193 16.2265 15.3193C19.6398 15.1993 22.3198 12.426 22.3332 8.99935C22.3332 5.50602 19.4932 2.66602 15.9998 2.66602Z" fill="#757575"/>
<path d="M22.7733 18.8659C19.0533 16.3859 12.9866 16.3859 9.23995 18.8659C7.54661 19.9992 6.61328 21.5325 6.61328 23.1725C6.61328 24.8125 7.54661 26.3325 9.22661 27.4525C11.0933 28.7059 13.5466 29.3325 15.9999 29.3325C18.4533 29.3325 20.9066 28.7059 22.7733 27.4525C24.4533 26.3192 25.3866 24.7992 25.3866 23.1459C25.3733 21.5059 24.4533 19.9859 22.7733 18.8659Z" fill="#757575"/>
</svg>
