<svg width="80" height="80" viewBox="0 0 80 80" fill="none" xmlns="http://www.w3.org/2000/svg">
<path d="M73.3334 40.0003C73.3334 21.6337 58.3668 6.66699 40.0001 6.66699C21.6334 6.66699 6.66675 21.6337 6.66675 40.0003C6.66675 49.667 10.8334 58.367 17.4334 64.467C17.4334 64.5003 17.4334 64.5003 17.4001 64.5337C17.7334 64.867 18.1334 65.1337 18.4667 65.4337C18.6667 65.6003 18.8334 65.767 19.0334 65.9003C19.6334 66.4003 20.3001 66.867 20.9334 67.3337C21.1667 67.5003 21.3667 67.6337 21.6001 67.8003C22.2334 68.2337 22.9001 68.6337 23.6001 69.0003C23.8334 69.1337 24.1001 69.3003 24.3334 69.4337C25.0001 69.8003 25.7001 70.1337 26.4334 70.4337C26.7001 70.567 26.9667 70.7003 27.2334 70.8003C27.9667 71.1003 28.7001 71.367 29.4334 71.6003C29.7001 71.7003 29.9667 71.8003 30.2334 71.867C31.0334 72.1003 31.8334 72.3003 32.6334 72.5003C32.8667 72.567 33.1001 72.6337 33.3668 72.667C34.3001 72.867 35.2334 73.0003 36.2001 73.1003C36.3334 73.1003 36.4667 73.1337 36.6001 73.167C37.7334 73.267 38.8667 73.3337 40.0001 73.3337C41.1334 73.3337 42.2668 73.267 43.3667 73.167C43.5001 73.167 43.6334 73.1337 43.7668 73.1003C44.7334 73.0003 45.6667 72.867 46.6001 72.667C46.8334 72.6337 47.0667 72.5337 47.3334 72.5003C48.1334 72.3003 48.9668 72.1337 49.7334 71.867C50.0001 71.767 50.2668 71.667 50.5334 71.6003C51.2668 71.3337 52.0334 71.1003 52.7334 70.8003C53.0001 70.7003 53.2668 70.567 53.5334 70.4337C54.2334 70.1337 54.9334 69.8003 55.6334 69.4337C55.9001 69.3003 56.1334 69.1337 56.3667 69.0003C57.0334 68.6003 57.7001 68.2337 58.3668 67.8003C58.6001 67.667 58.8001 67.5003 59.0334 67.3337C59.7001 66.867 60.3334 66.4003 60.9334 65.9003C61.1334 65.7337 61.3001 65.567 61.5001 65.4337C61.8668 65.1337 62.2334 64.8337 62.5668 64.5337C62.5668 64.5003 62.5667 64.5003 62.5334 64.467C69.1668 58.367 73.3334 49.667 73.3334 40.0003ZM56.4668 56.567C47.4334 50.5003 32.6334 50.5003 23.5334 56.567C22.0667 57.5337 20.8667 58.667 19.8667 59.9003C14.8001 54.767 11.6667 47.7337 11.6667 40.0003C11.6667 24.367 24.3667 11.667 40.0001 11.667C55.6334 11.667 68.3334 24.367 68.3334 40.0003C68.3334 47.7337 65.2001 54.767 60.1334 59.9003C59.1668 58.667 57.9334 57.5337 56.4668 56.567Z" fill="#CBCBCB"/>
<path d="M40 23.0996C33.1 23.0996 27.5 28.6996 27.5 35.5996C27.5 42.3663 32.8 47.8663 39.8333 48.0663C39.9333 48.0663 40.0667 48.0663 40.1333 48.0663C40.2 48.0663 40.3 48.0663 40.3667 48.0663C40.4 48.0663 40.4333 48.0663 40.4333 48.0663C47.1667 47.8329 52.4667 42.3663 52.5 35.5996C52.5 28.6996 46.9 23.0996 40 23.0996Z" fill="#CBCBCB"/>
</svg>
