<svg width="48" height="48" viewBox="0 0 48 48" fill="none" xmlns="http://www.w3.org/2000/svg">
<rect width="48" height="48" rx="8" fill="#5D87F2"/>
<path d="M18.6667 15.167C18.3962 15.167 18.1667 14.9375 18.1667 14.667V10.667C18.1667 10.3965 18.3962 10.167 18.6667 10.167C18.9373 10.167 19.1667 10.3965 19.1667 10.667V14.667C19.1667 14.9375 18.9373 15.167 18.6667 15.167Z" fill="#FCFCFE" stroke="#FCFCFE"/>
<path d="M29.3333 15.167C29.0627 15.167 28.8333 14.9375 28.8333 14.667V10.667C28.8333 10.3965 29.0627 10.167 29.3333 10.167C29.6038 10.167 29.8333 10.3965 29.8333 10.667V14.667C29.8333 14.9375 29.6038 15.167 29.3333 15.167Z" fill="#FCFCFE" stroke="#FCFCFE"/>
<path d="M20.1128 26.2833L20.0969 26.3151L20.0857 26.3488C20.0761 26.3776 20.0602 26.4126 20.0343 26.4537L19.9696 26.5345L19.9135 26.6046C19.7493 26.7499 19.5343 26.8336 19.3333 26.8336C19.1271 26.8336 18.9061 26.7455 18.7403 26.5931C18.5863 26.4259 18.5 26.217 18.5 26.0002C18.5 25.9028 18.5229 25.7947 18.5682 25.6859C18.6108 25.5838 18.6701 25.4883 18.7491 25.3984C19.045 25.1137 19.6105 25.1081 19.9241 25.405C20.0777 25.571 20.1667 25.7931 20.1667 26.0002C20.1667 26.0366 20.1601 26.0901 20.1461 26.189C20.1414 26.2143 20.1317 26.2455 20.1128 26.2833Z" fill="#FCFCFE" stroke="#FCFCFE"/>
<path d="M23.6857 26.7649L23.6858 26.7647L23.6729 26.7598C23.5777 26.7232 23.499 26.6726 23.4034 26.5886C23.2517 26.4221 23.1667 26.2148 23.1667 25.9998C23.1667 25.9023 23.1896 25.7943 23.235 25.6854C23.2761 25.5866 23.333 25.494 23.4082 25.4068C23.5016 25.3252 23.5793 25.2758 23.6729 25.2398L23.6729 25.2398L23.6813 25.2364C23.9958 25.1089 24.3639 25.1815 24.5885 25.402C24.7436 25.5683 24.8334 25.7916 24.8334 25.9998C24.8334 26.0361 24.8269 26.0897 24.8128 26.1885C24.8082 26.2138 24.7985 26.245 24.7795 26.2828L24.7636 26.3146L24.7524 26.3483C24.7416 26.3807 24.7228 26.421 24.6907 26.4691L24.6841 26.479L24.6785 26.4883C24.6785 26.4883 24.6786 26.4882 24.6786 26.4882C24.6785 26.4882 24.6722 26.4974 24.6508 26.5226C24.6428 26.532 24.6358 26.5401 24.6273 26.5498C24.6222 26.5557 24.6167 26.5621 24.61 26.5698C24.6017 26.5795 24.5923 26.5904 24.5824 26.6022C24.4179 26.7487 24.2019 26.8331 24.0001 26.8331C23.9026 26.8331 23.7945 26.8103 23.6857 26.7649Z" fill="#FCFCFE" stroke="#FCFCFE"/>
<path d="M19.019 31.4319L19.0191 31.4317L19.0062 31.4267C18.892 31.3828 18.8063 31.3259 18.7402 31.2598C18.6742 31.1938 18.6173 31.1081 18.5733 30.9939L18.5735 30.9938L18.5682 30.9811C18.5229 30.8722 18.5 30.7642 18.5 30.6667C18.5 30.5692 18.5229 30.4612 18.5682 30.3523L18.5684 30.3524L18.5733 30.3395C18.6173 30.2253 18.6742 30.1396 18.7402 30.0736C18.8063 30.0075 18.892 29.9506 19.0062 29.9067L19.0062 29.9069L19.019 29.9016C19.2291 29.814 19.4558 29.8139 19.6317 29.8946L19.6459 29.9011L19.6605 29.9067C19.7747 29.9506 19.8604 30.0075 19.9264 30.0736L20.28 29.72L19.9264 30.0736C19.9925 30.1396 20.0494 30.2253 20.0933 30.3395L20.0931 30.3396L20.0985 30.3523C20.1438 30.4612 20.1667 30.5692 20.1667 30.6667C20.1667 30.7642 20.1438 30.8722 20.0985 30.9811L20.0983 30.981L20.0933 30.9939C20.0494 31.1081 19.9925 31.1938 19.9264 31.2598C19.8604 31.3259 19.7747 31.3828 19.6605 31.4267L19.6604 31.4265L19.6477 31.4319C19.5389 31.4772 19.4308 31.5 19.3333 31.5C19.2358 31.5 19.1278 31.4772 19.019 31.4319Z" fill="#FCFCFE" stroke="#FCFCFE"/>
<path d="M35.3334 20.6201H12.6667C12.3962 20.6201 12.1667 20.3906 12.1667 20.1201C12.1667 19.8496 12.3962 19.6201 12.6667 19.6201H35.3334C35.6039 19.6201 35.8334 19.8496 35.8334 20.1201C35.8334 20.3906 35.6039 20.6201 35.3334 20.6201Z" fill="#FCFCFE" stroke="#FCFCFE"/>
<path d="M32.0001 39.6667C30.4401 39.6667 28.9601 39.1067 27.8268 38.08C27.3468 37.68 26.9201 37.1733 26.5734 36.5867C25.9867 35.6267 25.6667 34.4933 25.6667 33.3333C25.6667 29.84 28.5067 27 32.0001 27C33.8134 27 35.5467 27.7866 36.7467 29.1466C37.7734 30.32 38.3334 31.8 38.3334 33.3333C38.3334 34.4933 38.0134 35.6267 37.4134 36.6C36.2934 38.4933 34.2134 39.6667 32.0001 39.6667ZM32.0001 29C29.6134 29 27.6667 30.9467 27.6667 33.3333C27.6667 34.12 27.8801 34.8934 28.2934 35.56C28.5201 35.96 28.8134 36.2933 29.1334 36.5733C29.9334 37.2933 30.9334 37.6667 32.0001 37.6667C33.5334 37.6667 34.9201 36.88 35.7067 35.5733C36.1201 34.8933 36.3334 34.1333 36.3334 33.3333C36.3334 32.2933 35.9468 31.28 35.2534 30.4667C34.4268 29.5333 33.2401 29 32.0001 29Z" fill="#FCFCFE"/>
<path d="M30.8866 35.0065L30.8866 35.0065L29.5666 33.6865C29.5666 33.6865 29.5666 33.6865 29.5666 33.6865C29.3752 33.4951 29.3752 33.1717 29.5666 32.9803C29.7581 32.7889 30.0815 32.7889 30.2729 32.9803C30.2729 32.9803 30.2729 32.9803 30.2729 32.9803L30.9129 33.6203L31.2529 33.9604L31.6059 33.6338L33.7393 31.6604L33.7393 31.6605L33.7409 31.6589C33.936 31.4769 34.2598 31.4867 34.4476 31.6879C34.6294 31.8827 34.6198 32.206 34.4193 32.3939C34.419 32.3941 34.4188 32.3943 34.4186 32.3945L31.587 35.0135C31.4707 35.1123 31.3468 35.1534 31.2398 35.1534C31.1119 35.1534 30.9879 35.1078 30.8866 35.0065Z" fill="#FCFCFE" stroke="#FCFCFE"/>
<path d="M36.1745 30.2776L36.1745 30.2775L36.1693 30.2795C35.9782 30.352 35.7589 30.3007 35.6163 30.1377L35.6143 30.1355C34.6929 29.0951 33.37 28.5003 31.9867 28.5003C29.3239 28.5003 27.1533 30.6709 27.1533 33.3337C27.1533 34.207 27.3893 35.069 27.8499 35.8155C28.1086 36.2693 28.4391 36.6423 28.7907 36.9499L28.7906 36.95L28.7999 36.9578C28.9569 37.0886 29.0182 37.3057 28.9439 37.5082L28.9395 37.5201L28.9358 37.5321C28.8848 37.6966 28.7149 37.8337 28.4933 37.8337H18.6667C16.3282 37.8337 14.5528 37.1627 13.3619 35.9718C12.171 34.7809 11.5 33.0054 11.5 30.667V19.3337C11.5 16.9952 12.171 15.2198 13.3619 14.0289C14.5528 12.838 16.3282 12.167 18.6667 12.167H29.3333C31.6718 12.167 33.4472 12.838 34.6381 14.0289C35.829 15.2198 36.5 16.9952 36.5 19.3337V29.8136C36.5 30.0197 36.3752 30.204 36.1745 30.2776ZM26.4267 36.8337H27.2679L26.8659 36.0947C26.4123 35.2611 26.1667 34.3165 26.1667 33.3337C26.1667 30.1165 28.7828 27.5003 32 27.5003C32.9701 27.5003 33.9279 27.7462 34.761 28.1995L35.5 28.6016V27.7603V19.3337C35.5 17.3535 35.0188 15.7854 33.9502 14.7168C32.8816 13.6482 31.3135 13.167 29.3333 13.167H18.6667C16.6865 13.167 15.1184 13.6482 14.0498 14.7168C12.9812 15.7854 12.5 17.3535 12.5 19.3337V30.667C12.5 32.6471 12.9812 34.2153 14.0498 35.2839C15.1184 36.3525 16.6865 36.8337 18.6667 36.8337H26.4267Z" fill="#FCFCFE" stroke="#FCFCFE"/>
</svg>
