<svg width="32" height="32" viewBox="0 0 32 32" fill="none" xmlns="http://www.w3.org/2000/svg">
<path d="M14.6798 26.6932C21.3146 26.6932 26.6932 21.3146 26.6932 14.6798C26.6932 8.04506 21.3146 2.6665 14.6798 2.6665C8.04506 2.6665 2.6665 8.04506 2.6665 14.6798C2.6665 21.3146 8.04506 26.6932 14.6798 26.6932Z" fill="#446CB3"/>
<path d="M29.3202 25.2667C28.8802 24.4533 27.9469 24 26.6936 24C25.7469 24 24.9336 24.3867 24.4536 25.0533C23.9736 25.72 23.8669 26.6133 24.1602 27.5067C24.7336 29.24 25.7336 29.6267 26.2802 29.6933C26.3602 29.7067 26.4402 29.7067 26.5336 29.7067C27.1202 29.7067 28.0269 29.4533 28.9069 28.1333C29.6136 27.1067 29.7469 26.08 29.3202 25.2667Z" fill="#446CB3"/>
</svg>
