<svg width="40" height="40" viewBox="0 0 40 40" fill="none" xmlns="http://www.w3.org/2000/svg">
<path d="M23.7001 36.0499C21.7335 36.0499 18.9501 34.6665 16.7501 28.0499L15.5501 24.4499L11.9501 23.2499C5.35013 21.0499 3.9668 18.2665 3.9668 16.2999C3.9668 14.3499 5.35013 11.5499 11.9501 9.33321L26.1001 4.61654C29.6335 3.43321 32.5835 3.78321 34.4001 5.58321C36.2168 7.38321 36.5668 10.3499 35.3835 13.8832L30.6668 28.0332C28.4501 34.6665 25.6668 36.0499 23.7001 36.0499ZM12.7335 11.7165C8.10013 13.2665 6.45013 15.0999 6.45013 16.2999C6.45013 17.4999 8.10013 19.3332 12.7335 20.8665L16.9335 22.2665C17.3001 22.3832 17.6001 22.6832 17.7168 23.0499L19.1168 27.2499C20.6501 31.8832 22.5001 33.5332 23.7001 33.5332C24.9001 33.5332 26.7335 31.8832 28.2835 27.2499L33.0001 13.0999C33.8501 10.5332 33.7001 8.43321 32.6168 7.34987C31.5335 6.26654 29.4335 6.13321 26.8835 6.98321L12.7335 11.7165Z" fill="#FCFCFE"/>
<path d="M16.8498 23.9997C16.5332 23.9997 16.2165 23.883 15.9665 23.633C15.4832 23.1497 15.4832 22.3497 15.9665 21.8663L21.9332 15.883C22.4165 15.3997 23.2165 15.3997 23.6998 15.883C24.1832 16.3663 24.1832 17.1663 23.6998 17.6497L17.7332 23.633C17.4998 23.883 17.1665 23.9997 16.8498 23.9997Z" fill="#FCFCFE"/>
</svg>
