<svg width="24" height="25" viewBox="0 0 24 25" fill="none" xmlns="http://www.w3.org/2000/svg">
<path d="M18.91 15.1927C18.91 16.4827 19.97 17.5327 21.26 17.5327C21.26 21.2827 20.32 22.2227 16.57 22.2227H7.19C3.44 22.2227 2.5 21.2827 2.5 17.5327V17.0727C3.79 17.0727 4.85 16.0127 4.85 14.7227C4.85 13.4327 3.79 12.3727 2.5 12.3727V11.9127C2.51 8.16266 3.44 7.22266 7.19 7.22266H16.56C20.31 7.22266 21.25 8.16266 21.25 11.9127V12.8527C19.96 12.8527 18.91 13.8927 18.91 15.1927Z" stroke="#446CB3" stroke-width="1.5" stroke-linecap="round" stroke-linejoin="round"/>
<path opacity="0.4" d="M16.2111 7.2225H7.12109L10.0511 4.2925C12.4411 1.9025 13.6411 1.9025 16.0311 4.2925L16.6311 4.8925C16.0011 5.5225 15.8511 6.4525 16.2111 7.2225Z" stroke="#446CB3" stroke-width="1.5" stroke-linecap="round" stroke-linejoin="round"/>
<path opacity="0.4" d="M9.87891 7.22266L9.87891 22.2227" stroke="#446CB3" stroke-width="1.5" stroke-linecap="round" stroke-linejoin="round" stroke-dasharray="5 5"/>
</svg>
