<svg width="10" height="8" viewBox="0 0 10 8" fill="none" xmlns="http://www.w3.org/2000/svg">
<path d="M3.37271 3.85087C3.17431 3.89701 2.97823 3.92008 2.78445 3.92008C2.27693 3.92008 1.87784 3.75629 1.58717 3.42871C1.30112 3.10113 1.15809 2.65821 1.15809 2.09994C1.15809 1.68009 1.24345 1.22332 1.41416 0.729649L1.80864 0.881903C1.64715 1.33405 1.56641 1.74699 1.56641 2.1207C1.56641 2.54517 1.67022 2.87506 1.87784 3.11036C2.09008 3.35027 2.38997 3.47023 2.77753 3.47023C2.9344 3.47023 3.1028 3.44947 3.28274 3.40795C3.61954 3.3249 3.86638 3.25569 4.02325 3.20033C4.18012 3.14957 4.31392 3.06191 4.42465 2.93734C4.53538 2.81277 4.59074 2.63975 4.59074 2.41829C4.59074 2.32602 4.58613 2.2545 4.5769 2.20375C4.55383 2.02843 4.46156 1.39634 4.30008 0.307488L4.70148 0.238281L4.9783 2.13454C4.99214 2.24527 4.99906 2.34678 4.99906 2.43905C4.99906 2.73895 4.92755 2.98117 4.78452 3.16572C4.6415 3.35027 4.45694 3.48869 4.23087 3.58096C4.00479 3.67785 3.71874 3.76782 3.37271 3.85087ZM2.61835 1.50938L3.01975 1.10798L3.42115 1.50938L3.01975 1.91078L2.61835 1.50938Z" fill="#757575"/>
<path d="M1.28032 7.22829C0.994269 7.22829 0.770501 7.18908 0.609019 7.11064C0.447536 7.02759 0.329885 6.8938 0.256064 6.70924C0.182244 6.52008 0.138413 6.25709 0.124572 5.92029L0 2.73678L0.408319 2.72294L0.532891 5.92029C0.542119 6.16482 0.565188 6.34706 0.602098 6.46702C0.639008 6.58236 0.708215 6.66311 0.809718 6.70924C0.911221 6.75538 1.06809 6.77845 1.28032 6.77845H1.34953V7.22829H1.28032Z" fill="#757575"/>
<path d="M3.85205 4.96523C4.02738 5.06212 4.16348 5.20515 4.26037 5.39432C4.35726 5.58348 4.40571 5.79341 4.40571 6.0241C4.40571 6.31015 4.33419 6.5939 4.19117 6.87534C4.13119 6.99068 4.04352 7.08527 3.92818 7.15909C3.81745 7.22829 3.69518 7.2629 3.56138 7.2629C3.45527 7.2629 3.35376 7.23752 3.25688 7.18677L2.32951 6.70924C2.21416 6.87534 2.07344 7.00452 1.90735 7.0968C1.74125 7.18446 1.5567 7.22829 1.35369 7.22829H1.27757V6.77845H1.35369C1.51517 6.77845 1.66051 6.73923 1.78969 6.6608C1.91888 6.58236 2.01808 6.47625 2.08728 6.34245L2.59249 5.37355C2.67554 5.21207 2.79088 5.08519 2.93852 4.99292C3.08617 4.90064 3.24534 4.8545 3.41605 4.8545C3.57292 4.8545 3.71825 4.89141 3.85205 4.96523ZM3.86589 6.6954C3.98585 6.45548 4.04583 6.2271 4.04583 6.01026C4.04583 5.86261 4.01584 5.73112 3.95586 5.61578C3.89588 5.50043 3.81053 5.41277 3.6998 5.35279C3.62136 5.30665 3.5337 5.28359 3.43681 5.28359C3.32608 5.28359 3.22227 5.31588 3.12538 5.38048C3.02849 5.44507 2.95006 5.53734 2.89008 5.6573L2.53713 6.33553L3.47834 6.81997C3.51986 6.84304 3.566 6.85458 3.61675 6.85458C3.72287 6.85458 3.80591 6.80152 3.86589 6.6954Z" fill="#757575"/>
<path d="M7.8573 5.98257H7.47666V6.00333C7.48589 6.12329 7.4905 6.20865 7.4905 6.2594C7.4905 6.57775 7.41207 6.82459 7.2552 6.99991C7.10294 7.17985 6.87687 7.32057 6.57697 7.42207C6.28169 7.52358 5.83877 7.63661 5.24821 7.76118L5.16516 7.31826C5.72343 7.20292 6.12252 7.11064 6.36243 7.04144C6.60235 6.97223 6.78229 6.87765 6.90225 6.75769C7.0222 6.64234 7.08218 6.47625 7.08218 6.2594C7.08218 6.21788 7.07757 6.15098 7.06834 6.0587L7.06142 5.98257H6.09945C5.76264 5.98257 5.49504 5.88107 5.29665 5.67806C5.09826 5.47044 4.99906 5.189 4.99906 4.83374C4.99906 4.61228 5.0452 4.40466 5.13748 4.21088C5.23437 4.01249 5.37047 3.85331 5.5458 3.73336C5.72112 3.60878 5.92413 3.5465 6.15481 3.5465C6.47778 3.5465 6.74768 3.67107 6.96453 3.92021C7.18138 4.16936 7.31287 4.49694 7.35901 4.90295L7.42822 5.53273H7.8573V5.98257ZM7.01298 5.53273L6.95069 4.95831C6.91839 4.6538 6.83073 4.4185 6.68771 4.25241C6.54468 4.0817 6.36474 3.99634 6.14789 3.99634C5.9172 3.99634 5.73727 4.07939 5.60808 4.24548C5.4789 4.41158 5.4143 4.60767 5.4143 4.83374C5.4143 5.29973 5.64268 5.53273 6.09945 5.53273H7.01298Z" fill="#757575"/>
<path d="M8.78196 5.53273C9.01727 5.53273 9.20874 5.48429 9.35638 5.3874C9.50863 5.29051 9.58476 5.12902 9.58476 4.90295C9.58476 4.79222 9.56861 4.67918 9.53631 4.56384L9.26641 3.53266L9.66089 3.42193L9.93771 4.47387C9.97924 4.63996 10 4.78991 10 4.92371C10 5.26513 9.88004 5.52812 9.64013 5.71267C9.40482 5.8926 9.11877 5.98257 8.78196 5.98257H7.78539V5.53273H8.78196ZM7.74848 3.63416L8.10143 3.28121L8.46131 3.63416L8.10143 3.99404L7.74848 3.63416ZM7.73694 2.48072L8.0899 2.12776L8.44977 2.48072L8.0899 2.84059L7.73694 2.48072Z" fill="#757575"/>
</svg>
