<svg width="16" height="16" viewBox="0 0 16 16" fill="none" xmlns="http://www.w3.org/2000/svg">
<path d="M8.66675 6.5H4.66675C4.39341 6.5 4.16675 6.27333 4.16675 6C4.16675 5.72667 4.39341 5.5 4.66675 5.5H8.66675C8.94008 5.5 9.16675 5.72667 9.16675 6C9.16675 6.27333 8.94008 6.5 8.66675 6.5Z" fill="#2E3B51"/>
<path d="M12.6933 9.86613C11.6867 9.86613 10.8334 9.11946 10.7534 8.15946C10.7 7.60613 10.9 7.06614 11.3 6.67281C11.6334 6.32614 12.1067 6.13281 12.6067 6.13281H14C14.66 6.15281 15.1667 6.67278 15.1667 7.31278V8.68616C15.1667 9.32616 14.66 9.84613 14.02 9.86613H12.6933ZM13.98 7.13281H12.6133C12.38 7.13281 12.1667 7.21948 12.0134 7.37948C11.82 7.56614 11.7267 7.81946 11.7534 8.07279C11.7867 8.51279 12.2133 8.86613 12.6933 8.86613H14C14.0867 8.86613 14.1667 8.78616 14.1667 8.68616V7.31278C14.1667 7.21278 14.0867 7.13948 13.98 7.13281Z" fill="#2E3B51"/>
<path d="M10.6666 14.1673H4.66659C2.37325 14.1673 0.833252 12.6273 0.833252 10.334V5.66732C0.833252 3.61398 2.0999 2.12732 4.06657 1.88066C4.24657 1.85399 4.45325 1.83398 4.66659 1.83398H10.6666C10.8266 1.83398 11.0332 1.84065 11.2466 1.87398C13.2132 2.10065 14.4999 3.59398 14.4999 5.66732V6.63399C14.4999 6.90733 14.2733 7.13399 13.9999 7.13399H12.6132C12.3799 7.13399 12.1666 7.22066 12.0133 7.38066L12.0066 7.38733C11.8199 7.56733 11.7333 7.81397 11.7533 8.0673C11.7866 8.5073 12.2132 8.86064 12.6932 8.86064H13.9999C14.2733 8.86064 14.4999 9.0873 14.4999 9.36064V10.3273C14.4999 12.6273 12.9599 14.1673 10.6666 14.1673ZM4.66659 2.83398C4.50659 2.83398 4.35324 2.84731 4.19991 2.86731C2.73324 3.05398 1.83325 4.12065 1.83325 5.66732V10.334C1.83325 12.054 2.94659 13.1673 4.66659 13.1673H10.6666C12.3866 13.1673 13.4999 12.054 13.4999 10.334V9.86731H12.6932C11.6866 9.86731 10.8333 9.12064 10.7533 8.16064C10.6999 7.61398 10.8999 7.06733 11.2999 6.68066C11.6466 6.32733 12.1132 6.13399 12.6132 6.13399H13.4999V5.66732C13.4999 4.10732 12.5866 3.03397 11.1066 2.86064C10.9466 2.83397 10.8066 2.83398 10.6666 2.83398H4.66659V2.83398Z" fill="#2E3B51"/>
</svg>
