<svg width="32" height="32" viewBox="0 0 32 32" fill="none" xmlns="http://www.w3.org/2000/svg">
<path opacity="0.4" d="M8.3156 9.91009L8.31562 9.91028L8.32937 9.90817C8.64932 9.85894 8.98384 9.83398 9.33334 9.83398H22.6667C23.003 9.83398 23.3045 9.84718 23.5845 9.89383L23.5967 9.89586L23.6089 9.89729C25.2168 10.0842 26.5144 10.7678 27.4115 11.8073C28.3095 12.8479 28.8333 14.2771 28.8333 16.0007V22.6673C28.8333 24.5537 28.2067 26.0868 27.1465 27.1471C26.0862 28.2074 24.553 28.834 22.6667 28.834H9.33334C7.44696 28.834 5.91384 28.2074 4.85356 27.1471C3.79328 26.0868 3.16667 24.5537 3.16667 22.6673V16.0007C3.16667 14.2892 3.68132 12.8691 4.56554 11.8317C5.44873 10.7955 6.72738 10.1094 8.3156 9.91009Z" fill="#757575" stroke="#757575"/>
<path d="M9.38021 8.72625L9.38076 8.7257L13.7122 4.38086C13.7125 4.38057 13.7128 4.38027 13.7131 4.37998C15.3444 2.7616 17.9879 2.76136 19.6194 4.37925L21.9511 6.73758L21.9511 6.73761L21.9559 6.74237C22.5665 7.34339 22.9455 8.07061 23.0967 8.84121C22.9526 8.83483 22.809 8.8327 22.6667 8.8327H9.33333C9.31446 8.8327 9.29563 8.83276 9.27682 8.83289C9.31038 8.79716 9.34485 8.76161 9.38021 8.72625Z" fill="#757575" stroke="#757575"/>
<path d="M29.3333 16.666H25.3333C23.8667 16.666 22.6667 17.866 22.6667 19.3327C22.6667 20.7993 23.8667 21.9993 25.3333 21.9993H29.3333" fill="#757575"/>
</svg>
