<svg width="32" height="32" viewBox="0 0 32 32" fill="none" xmlns="http://www.w3.org/2000/svg">
<path d="M21.5865 2.6665H10.4132C5.55984 2.6665 2.6665 5.55984 2.6665 10.4132V21.5732C2.6665 26.4398 5.55984 29.3332 10.4132 29.3332H21.5732C26.4265 29.3332 29.3198 26.4398 29.3198 21.5865V10.4132C29.3332 5.55984 26.4398 2.6665 21.5865 2.6665ZM20.9998 20.9998H10.9998C10.4532 20.9998 9.99984 20.5465 9.99984 19.9998C9.99984 19.4532 10.4532 18.9998 10.9998 18.9998H20.9998C21.5465 18.9998 21.9998 19.4532 21.9998 19.9998C21.9998 20.5465 21.5465 20.9998 20.9998 20.9998ZM20.9998 12.9998H10.9998C10.4532 12.9998 9.99984 12.5465 9.99984 11.9998C9.99984 11.4532 10.4532 10.9998 10.9998 10.9998H20.9998C21.5465 10.9998 21.9998 11.4532 21.9998 11.9998C21.9998 12.5465 21.5465 12.9998 20.9998 12.9998Z" fill="#446CB3"/>
</svg>
