<svg width="32" height="32" viewBox="0 0 32 32" fill="none" xmlns="http://www.w3.org/2000/svg">
<path opacity="0.4" d="M27.0866 19.3791L27.0864 19.3799C26.5365 21.7431 25.737 23.311 24.6416 24.2484C23.5632 25.1713 22.1209 25.5472 20.1279 25.3556L20.1279 25.3555L20.1199 25.3549C19.4837 25.304 18.7899 25.1889 18.0374 25.0072L18.0359 25.0069L15.7959 24.4735L15.7956 24.4734C13.0633 23.8248 11.4011 22.8524 10.5432 21.4711C9.68557 20.0904 9.55163 18.172 10.1935 15.4341L10.1936 15.4338L11.5001 9.84778C11.5001 9.84765 11.5002 9.84753 11.5002 9.8474C11.762 8.73491 12.0714 7.78788 12.4488 7.02059L12.4488 7.02059L12.4502 7.01756C13.1858 5.49618 14.1488 4.58334 15.4115 4.14757C16.6975 3.70378 18.3656 3.72945 20.5517 4.24651L20.553 4.24683L22.7795 4.76679C22.7796 4.7668 22.7796 4.76682 22.7797 4.76683C25.5248 5.4089 27.1893 6.38138 28.0469 7.76353C28.9044 9.14571 29.0353 11.0672 28.3933 13.8058L27.0866 19.3791Z" fill="#757575" stroke="#757575"/>
<path d="M18.5411 26.1411C18.0232 26.3818 17.4414 26.606 16.7915 26.818L16.7903 26.8184L14.6865 27.5108C14.6861 27.511 14.6857 27.5111 14.6853 27.5112C12.0857 28.3492 10.2249 28.3748 8.82771 27.6599C7.43014 26.9449 6.36049 25.4193 5.51549 22.8189L3.80918 17.5533C3.80915 17.5532 3.80912 17.5531 3.80909 17.553C2.97067 14.9525 2.94174 13.0877 3.6539 11.6885C4.36568 10.2901 5.88722 9.22072 8.48673 8.38259L8.48673 8.3826L8.48961 8.38165L10.5937 7.68917C10.7832 7.6291 10.9677 7.57288 11.1474 7.52141C10.9088 8.15803 10.7049 8.86087 10.5266 9.61886L10.5264 9.61951L9.21983 15.2059C9.21981 15.206 9.21979 15.2061 9.21977 15.2062C8.55509 18.0414 8.62784 20.283 9.69356 21.9989C10.7589 23.7141 12.7366 24.7751 15.5642 25.4465L18.5411 26.1411ZM18.5411 26.1411C18.3001 26.094 18.0542 26.0401 17.8036 25.9796C17.8033 25.9796 17.8029 25.9795 17.8026 25.9794L15.5645 25.4465L18.5411 26.1411Z" fill="#757575" stroke="#757575"/>
<path d="M16.7227 11.862L16.7227 11.862L16.7211 11.8615C16.4618 11.7967 16.297 11.5261 16.3649 11.2545C16.4297 10.9954 16.6999 10.8307 16.9712 10.8982C16.9714 10.8982 16.9717 10.8983 16.9719 10.8984L23.4369 12.5379L23.4386 12.5384C23.6979 12.6032 23.8627 12.8737 23.7947 13.1453L23.7939 13.1488C23.744 13.3546 23.5395 13.5133 23.3198 13.5133C23.2882 13.5133 23.2568 13.5088 23.1678 13.496C23.1664 13.4958 23.165 13.4956 23.1637 13.4954L16.7227 11.862Z" fill="#757575" stroke="#757575"/>
<path d="M19.4133 18.5201C19.3333 18.5201 19.2533 18.5068 19.16 18.4934L15.28 17.5068C14.7467 17.3734 14.4267 16.8268 14.56 16.2934C14.6933 15.7601 15.24 15.4401 15.7733 15.5734L19.6533 16.5601C20.1867 16.6934 20.5067 17.2401 20.3733 17.7734C20.2667 18.2268 19.8667 18.5201 19.4133 18.5201Z" fill="#757575"/>
</svg>
